<svg width="89" height="100" viewBox="0 0 89 100" fill="none" xmlns="http://www.w3.org/2000/svg">
<g clip-path="url(#clip0_173_35386)">
<path d="M20.8533 1.9181C18.7502 0.681983 16.3577 0.0237146 13.9182 0.00998488C11.4788 -0.00374482 9.07901 0.627554 6.96209 1.83992C4.84517 3.05228 3.0863 4.80268 1.86367 6.91369C0.641048 9.0247 -0.00188088 11.4213 4.13311e-06 13.8608V85.6203C0.000826704 88.0591 0.645085 90.4544 1.86773 92.5646C3.09038 94.6747 4.84812 96.425 6.96351 97.6385C9.0789 98.8521 11.477 99.4861 13.9158 99.4765C16.3546 99.4668 18.7476 98.8139 20.8533 97.5836L82.0726 61.6936C84.1564 60.4731 85.8846 58.7287 87.0855 56.6337C88.2864 54.5386 88.9182 52.1657 88.9182 49.7508C88.9182 47.336 88.2864 44.9632 87.0855 42.8681C85.8846 40.773 84.1564 39.0286 82.0726 37.8082L20.8533 1.9181Z" fill="#8655F6"/>
<path d="M8.64242 67.7167C10.0656 70.1506 16.2949 69.3462 24.2979 66.1697L17.6562 54.8252C10.9526 60.25 7.21919 65.2828 8.64242 67.7167Z" fill="white"/>
<path d="M40.2838 58.5788C54.021 49.9569 62.9729 40.3863 60.7659 36.5085C58.5588 32.6308 45.7704 35.7866 31.5176 43.5422C29.6917 41.2837 27.1649 39.6985 24.3369 39.0373C21.509 38.3761 18.5413 38.6765 15.9033 39.8912L35.8285 73.9455C38.1732 72.2435 39.8841 69.8088 40.6909 67.0261C41.4977 64.2433 41.3545 61.2711 40.2838 58.5788Z" fill="white"/>
</g>
<defs>
<clipPath id="clip0_173_35386">
<rect width="88.9" height="99.502" fill="white"/>
</clipPath>
</defs>
</svg>
